<svg width="300" height="300" viewBox="0 0 300 300" fill="none" xmlns="http://www.w3.org/2000/svg">
<rect width="300" height="300" fill="black"/>
<path opacity="0.9" d="M33 26H66.2857V97.3265L123.347 26H166.143L99.5714 106.837L170.898 187.673H123.347L66.2857 121.102V187.673H33V26Z" fill="white"/>
<path d="M128.102 54.5306H161.388V125.857L218.449 54.5306H261.245L194.673 135.367L266 216.204H218.449L161.388 149.633V216.204H128.102V54.5306Z" fill="white"/>
<path d="M166.571 235.225V263.755C166.571 270.095 169.741 273.265 176.082 273.265H199.857C206.197 273.265 209.367 270.095 209.367 263.755V235.225C209.367 228.884 206.197 225.714 199.857 225.714H176.082C169.741 225.714 166.571 228.884 166.571 235.225ZM180.837 239.98H195.102V259H180.837V239.98Z" fill="white"/>
<path d="M218.878 225.714H266.429V239.98H233.143V244.735H256.918C263.258 244.735 266.429 247.905 266.429 254.245V263.755C266.429 270.095 263.258 273.265 256.918 273.265H218.878V259H252.163V254.245H228.388C222.048 254.245 218.878 251.075 218.878 244.735V225.714Z" fill="white"/>
</svg>
